<mxfile host="app.diagrams.net" modified="2023-01-16T00:13:11.844Z" agent="5.0 (Windows NT 10.0; Win64; x64) AppleWebKit/537.36 (KHTML, like Gecko) Chrome/109.0.0.0 Safari/537.36 Edg/109.0.1518.52" etag="Fon2fUQjfNQeFbnvyrCm" version="20.8.5" type="github">
  <diagram id="kyxDs5Nzugmdce2NwBDJ" name="Página-1">
    <mxGraphModel dx="3234" dy="1345" grid="0" gridSize="10" guides="1" tooltips="1" connect="1" arrows="1" fold="1" page="0" pageScale="1" pageWidth="827" pageHeight="1169" math="0" shadow="0">
      <root>
        <mxCell id="0" />
        <mxCell id="1" parent="0" />
        <mxCell id="CxPUUfQjLeS6HFwpv8-U-5" value="" style="edgeStyle=orthogonalEdgeStyle;rounded=0;orthogonalLoop=1;jettySize=auto;html=1;fontFamily=Courier New;fontSize=12;" parent="1" source="CxPUUfQjLeS6HFwpv8-U-2" target="CxPUUfQjLeS6HFwpv8-U-4" edge="1">
          <mxGeometry relative="1" as="geometry" />
        </mxCell>
        <mxCell id="CxPUUfQjLeS6HFwpv8-U-2" value="&lt;font face=&quot;Courier New&quot; style=&quot;font-size: 14px;&quot;&gt;Início&lt;/font&gt;" style="ellipse;whiteSpace=wrap;html=1;" parent="1" vertex="1">
          <mxGeometry y="-99" width="168" height="57" as="geometry" />
        </mxCell>
        <mxCell id="CxPUUfQjLeS6HFwpv8-U-7" value="" style="edgeStyle=orthogonalEdgeStyle;rounded=0;orthogonalLoop=1;jettySize=auto;html=1;fontFamily=Courier New;fontSize=12;" parent="1" source="CxPUUfQjLeS6HFwpv8-U-4" target="CxPUUfQjLeS6HFwpv8-U-6" edge="1">
          <mxGeometry relative="1" as="geometry" />
        </mxCell>
        <mxCell id="CxPUUfQjLeS6HFwpv8-U-4" value="&lt;font style=&quot;font-size: 12px;&quot;&gt;Informe o saldo inicial da peça&lt;/font&gt;" style="shape=display;whiteSpace=wrap;html=1;fontFamily=Courier New;fontSize=14;align=center;" parent="1" vertex="1">
          <mxGeometry x="1" y="-1" width="166" height="42" as="geometry" />
        </mxCell>
        <mxCell id="CxPUUfQjLeS6HFwpv8-U-9" value="" style="edgeStyle=orthogonalEdgeStyle;rounded=0;orthogonalLoop=1;jettySize=auto;html=1;fontFamily=Courier New;fontSize=12;" parent="1" source="CxPUUfQjLeS6HFwpv8-U-6" target="CxPUUfQjLeS6HFwpv8-U-8" edge="1">
          <mxGeometry relative="1" as="geometry" />
        </mxCell>
        <mxCell id="CxPUUfQjLeS6HFwpv8-U-6" value="&lt;div style=&quot;&quot;&gt;&lt;span style=&quot;background-color: initial;&quot;&gt;Saldo(S)&lt;/span&gt;&lt;/div&gt;" style="shape=manualInput;whiteSpace=wrap;html=1;fontFamily=Courier New;fontSize=12;align=center;" parent="1" vertex="1">
          <mxGeometry x="16" y="87" width="136" height="85" as="geometry" />
        </mxCell>
        <mxCell id="CxPUUfQjLeS6HFwpv8-U-20" value="" style="edgeStyle=orthogonalEdgeStyle;rounded=0;orthogonalLoop=1;jettySize=auto;html=1;fontFamily=Courier New;fontSize=12;" parent="1" source="CxPUUfQjLeS6HFwpv8-U-8" edge="1">
          <mxGeometry relative="1" as="geometry">
            <mxPoint x="84" y="407" as="targetPoint" />
          </mxGeometry>
        </mxCell>
        <mxCell id="CxPUUfQjLeS6HFwpv8-U-8" value="Opção:&lt;br&gt;1: Entrada&lt;br&gt;2: Saída" style="shape=display;whiteSpace=wrap;html=1;fontFamily=Courier New;fontSize=12;" parent="1" vertex="1">
          <mxGeometry x="9" y="213" width="150" height="59" as="geometry" />
        </mxCell>
        <mxCell id="CxPUUfQjLeS6HFwpv8-U-24" value="" style="edgeStyle=orthogonalEdgeStyle;rounded=0;orthogonalLoop=1;jettySize=auto;html=1;fontFamily=Courier New;fontSize=12;" parent="1" source="CxPUUfQjLeS6HFwpv8-U-21" edge="1">
          <mxGeometry relative="1" as="geometry">
            <mxPoint x="224" y="477" as="targetPoint" />
          </mxGeometry>
        </mxCell>
        <mxCell id="CxPUUfQjLeS6HFwpv8-U-25" value="" style="edgeStyle=orthogonalEdgeStyle;rounded=0;orthogonalLoop=1;jettySize=auto;html=1;fontFamily=Courier New;fontSize=12;" parent="1" source="CxPUUfQjLeS6HFwpv8-U-21" edge="1">
          <mxGeometry relative="1" as="geometry">
            <mxPoint x="-64" y="477" as="targetPoint" />
          </mxGeometry>
        </mxCell>
        <mxCell id="CxPUUfQjLeS6HFwpv8-U-21" value="Opção 1?" style="strokeWidth=2;html=1;shape=mxgraph.flowchart.decision;whiteSpace=wrap;fontFamily=Courier New;fontSize=12;" parent="1" vertex="1">
          <mxGeometry x="25" y="414" width="118" height="126" as="geometry" />
        </mxCell>
        <mxCell id="CxPUUfQjLeS6HFwpv8-U-26" value="SIM" style="text;strokeColor=none;align=center;fillColor=none;html=1;verticalAlign=middle;whiteSpace=wrap;rounded=0;fontFamily=Courier New;fontSize=12;" parent="1" vertex="1">
          <mxGeometry x="-46" y="457" width="60" height="30" as="geometry" />
        </mxCell>
        <mxCell id="CxPUUfQjLeS6HFwpv8-U-27" value="NÃO" style="text;strokeColor=none;align=center;fillColor=none;html=1;verticalAlign=middle;whiteSpace=wrap;rounded=0;fontFamily=Courier New;fontSize=12;" parent="1" vertex="1">
          <mxGeometry x="154" y="457" width="60" height="30" as="geometry" />
        </mxCell>
        <mxCell id="lVZHPiC1ry_RX20MCJ_k-70" value="" style="edgeStyle=orthogonalEdgeStyle;rounded=0;orthogonalLoop=1;jettySize=auto;html=1;fontFamily=Courier New;fontSize=12;" edge="1" parent="1" source="CxPUUfQjLeS6HFwpv8-U-28" target="CxPUUfQjLeS6HFwpv8-U-30">
          <mxGeometry relative="1" as="geometry">
            <Array as="points">
              <mxPoint x="-170" y="513" />
              <mxPoint x="-170" y="513" />
            </Array>
          </mxGeometry>
        </mxCell>
        <mxCell id="CxPUUfQjLeS6HFwpv8-U-28" value="&lt;div style=&quot;&quot;&gt;&lt;span style=&quot;background-color: initial;&quot;&gt;&lt;font style=&quot;font-size: 12px;&quot;&gt;Insira a quantidade de peças&lt;/font&gt;&lt;/span&gt;&lt;/div&gt;" style="shape=display;whiteSpace=wrap;html=1;fontFamily=Courier New;fontSize=12;align=center;" parent="1" vertex="1">
          <mxGeometry x="-274" y="441" width="200" height="63" as="geometry" />
        </mxCell>
        <mxCell id="CxPUUfQjLeS6HFwpv8-U-32" value="" style="edgeStyle=orthogonalEdgeStyle;rounded=0;orthogonalLoop=1;jettySize=auto;html=1;fontFamily=Courier New;fontSize=12;" parent="1" source="CxPUUfQjLeS6HFwpv8-U-29" target="CxPUUfQjLeS6HFwpv8-U-31" edge="1">
          <mxGeometry relative="1" as="geometry" />
        </mxCell>
        <mxCell id="CxPUUfQjLeS6HFwpv8-U-29" value="&lt;div style=&quot;&quot;&gt;&lt;span style=&quot;background-color: initial;&quot;&gt;&lt;font style=&quot;font-size: 12px;&quot;&gt;Insira a quntidade de peças&lt;/font&gt;&lt;/span&gt;&lt;/div&gt;" style="shape=display;whiteSpace=wrap;html=1;fontFamily=Courier New;fontSize=12;align=center;" parent="1" vertex="1">
          <mxGeometry x="235" y="450" width="192" height="54" as="geometry" />
        </mxCell>
        <mxCell id="CxPUUfQjLeS6HFwpv8-U-36" value="" style="edgeStyle=orthogonalEdgeStyle;rounded=0;orthogonalLoop=1;jettySize=auto;html=1;fontFamily=Courier New;fontSize=12;" parent="1" source="CxPUUfQjLeS6HFwpv8-U-30" target="CxPUUfQjLeS6HFwpv8-U-35" edge="1">
          <mxGeometry relative="1" as="geometry" />
        </mxCell>
        <mxCell id="CxPUUfQjLeS6HFwpv8-U-30" value="Quantidade inserida (QI)" style="shape=manualInput;whiteSpace=wrap;html=1;fontFamily=Courier New;fontSize=12;" parent="1" vertex="1">
          <mxGeometry x="-226.5" y="540" width="113" height="97" as="geometry" />
        </mxCell>
        <mxCell id="CxPUUfQjLeS6HFwpv8-U-41" value="" style="edgeStyle=orthogonalEdgeStyle;rounded=0;orthogonalLoop=1;jettySize=auto;html=1;fontFamily=Courier New;fontSize=12;" parent="1" source="CxPUUfQjLeS6HFwpv8-U-31" target="CxPUUfQjLeS6HFwpv8-U-40" edge="1">
          <mxGeometry relative="1" as="geometry" />
        </mxCell>
        <mxCell id="CxPUUfQjLeS6HFwpv8-U-31" value="Quantidade removida(QR)" style="shape=manualInput;whiteSpace=wrap;html=1;fontFamily=Courier New;fontSize=12;" parent="1" vertex="1">
          <mxGeometry x="275" y="533" width="112" height="95" as="geometry" />
        </mxCell>
        <mxCell id="CxPUUfQjLeS6HFwpv8-U-38" value="" style="edgeStyle=orthogonalEdgeStyle;rounded=0;orthogonalLoop=1;jettySize=auto;html=1;fontFamily=Courier New;fontSize=12;" parent="1" source="CxPUUfQjLeS6HFwpv8-U-35" target="CxPUUfQjLeS6HFwpv8-U-37" edge="1">
          <mxGeometry relative="1" as="geometry" />
        </mxCell>
        <mxCell id="CxPUUfQjLeS6HFwpv8-U-35" value="S + QI" style="rounded=1;whiteSpace=wrap;html=1;absoluteArcSize=1;arcSize=14;strokeWidth=2;fontFamily=Courier New;fontSize=12;" parent="1" vertex="1">
          <mxGeometry x="-262.5" y="670" width="185" height="100" as="geometry" />
        </mxCell>
        <mxCell id="lVZHPiC1ry_RX20MCJ_k-29" value="" style="edgeStyle=orthogonalEdgeStyle;rounded=0;orthogonalLoop=1;jettySize=auto;html=1;fontFamily=Courier New;fontSize=12;" edge="1" parent="1" source="CxPUUfQjLeS6HFwpv8-U-37" target="lVZHPiC1ry_RX20MCJ_k-27">
          <mxGeometry relative="1" as="geometry" />
        </mxCell>
        <mxCell id="CxPUUfQjLeS6HFwpv8-U-37" value="Saldo atualizado" style="shape=display;whiteSpace=wrap;html=1;fontFamily=Courier New;fontSize=12;" parent="1" vertex="1">
          <mxGeometry x="-255.5" y="817" width="171" height="54" as="geometry" />
        </mxCell>
        <mxCell id="CxPUUfQjLeS6HFwpv8-U-43" value="" style="edgeStyle=orthogonalEdgeStyle;rounded=0;orthogonalLoop=1;jettySize=auto;html=1;fontFamily=Courier New;fontSize=12;startArrow=none;" parent="1" source="CxPUUfQjLeS6HFwpv8-U-55" target="CxPUUfQjLeS6HFwpv8-U-42" edge="1">
          <mxGeometry relative="1" as="geometry" />
        </mxCell>
        <mxCell id="CxPUUfQjLeS6HFwpv8-U-45" value="" style="edgeStyle=orthogonalEdgeStyle;rounded=0;orthogonalLoop=1;jettySize=auto;html=1;fontFamily=Courier New;fontSize=12;entryX=0.49;entryY=1;entryDx=0;entryDy=0;entryPerimeter=0;startArrow=none;" parent="1" source="CxPUUfQjLeS6HFwpv8-U-56" target="CxPUUfQjLeS6HFwpv8-U-48" edge="1">
          <mxGeometry relative="1" as="geometry">
            <mxPoint x="547" y="638" as="targetPoint" />
          </mxGeometry>
        </mxCell>
        <mxCell id="CxPUUfQjLeS6HFwpv8-U-40" value="QR &amp;lt;= S?" style="strokeWidth=2;html=1;shape=mxgraph.flowchart.decision;whiteSpace=wrap;fontFamily=Courier New;fontSize=12;" parent="1" vertex="1">
          <mxGeometry x="272" y="657" width="118" height="126" as="geometry" />
        </mxCell>
        <mxCell id="lVZHPiC1ry_RX20MCJ_k-2" value="" style="edgeStyle=orthogonalEdgeStyle;rounded=0;orthogonalLoop=1;jettySize=auto;html=1;fontFamily=Courier New;fontSize=12;" edge="1" parent="1" source="CxPUUfQjLeS6HFwpv8-U-42" target="lVZHPiC1ry_RX20MCJ_k-1">
          <mxGeometry relative="1" as="geometry" />
        </mxCell>
        <mxCell id="CxPUUfQjLeS6HFwpv8-U-42" value="S - QR" style="rounded=1;whiteSpace=wrap;html=1;absoluteArcSize=1;arcSize=14;strokeWidth=2;fontFamily=Courier New;fontSize=12;" parent="1" vertex="1">
          <mxGeometry x="238.5" y="856" width="185" height="100" as="geometry" />
        </mxCell>
        <mxCell id="CxPUUfQjLeS6HFwpv8-U-48" value="&lt;div style=&quot;&quot;&gt;&lt;span style=&quot;background-color: initial;&quot;&gt;&lt;font style=&quot;font-size: 12px;&quot;&gt;Saldo insuficiente&lt;/font&gt;&lt;/span&gt;&lt;/div&gt;" style="shape=display;whiteSpace=wrap;html=1;fontFamily=Courier New;fontSize=12;align=center;" parent="1" vertex="1">
          <mxGeometry x="453" y="574" width="192" height="54" as="geometry" />
        </mxCell>
        <mxCell id="CxPUUfQjLeS6HFwpv8-U-54" value="" style="edgeStyle=orthogonalEdgeStyle;rounded=0;orthogonalLoop=1;jettySize=auto;html=1;fontFamily=Courier New;fontSize=12;entryX=1;entryY=0.5;entryDx=0;entryDy=0;entryPerimeter=0;" parent="1" target="CxPUUfQjLeS6HFwpv8-U-29" edge="1">
          <mxGeometry relative="1" as="geometry">
            <mxPoint x="546" y="574" as="sourcePoint" />
            <mxPoint x="636" y="439" as="targetPoint" />
            <Array as="points">
              <mxPoint x="546" y="477" />
            </Array>
          </mxGeometry>
        </mxCell>
        <mxCell id="CxPUUfQjLeS6HFwpv8-U-59" value="" style="edgeStyle=orthogonalEdgeStyle;rounded=0;orthogonalLoop=1;jettySize=auto;html=1;fontFamily=Courier New;fontSize=12;endArrow=none;" parent="1" target="CxPUUfQjLeS6HFwpv8-U-55" edge="1">
          <mxGeometry relative="1" as="geometry">
            <mxPoint x="331" y="789" as="sourcePoint" />
            <mxPoint x="331" y="844" as="targetPoint" />
          </mxGeometry>
        </mxCell>
        <mxCell id="CxPUUfQjLeS6HFwpv8-U-55" value="SIM" style="text;strokeColor=none;align=center;fillColor=none;html=1;verticalAlign=middle;whiteSpace=wrap;rounded=0;fontFamily=Courier New;fontSize=12;" parent="1" vertex="1">
          <mxGeometry x="301" y="802" width="60" height="21" as="geometry" />
        </mxCell>
        <mxCell id="CxPUUfQjLeS6HFwpv8-U-60" value="" style="edgeStyle=orthogonalEdgeStyle;rounded=0;orthogonalLoop=1;jettySize=auto;html=1;fontFamily=Courier New;fontSize=12;entryX=0.49;entryY=1;entryDx=0;entryDy=0;entryPerimeter=0;endArrow=none;" parent="1" source="CxPUUfQjLeS6HFwpv8-U-40" target="CxPUUfQjLeS6HFwpv8-U-56" edge="1">
          <mxGeometry relative="1" as="geometry">
            <mxPoint x="390" y="720" as="sourcePoint" />
            <mxPoint x="547.0799999999999" y="628" as="targetPoint" />
          </mxGeometry>
        </mxCell>
        <mxCell id="CxPUUfQjLeS6HFwpv8-U-56" value="NÃO" style="text;strokeColor=none;align=center;fillColor=none;html=1;verticalAlign=middle;whiteSpace=wrap;rounded=0;fontFamily=Courier New;fontSize=12;" parent="1" vertex="1">
          <mxGeometry x="517" y="670" width="60" height="30" as="geometry" />
        </mxCell>
        <mxCell id="lVZHPiC1ry_RX20MCJ_k-31" value="" style="edgeStyle=orthogonalEdgeStyle;rounded=0;orthogonalLoop=1;jettySize=auto;html=1;fontFamily=Courier New;fontSize=12;" edge="1" parent="1" source="lVZHPiC1ry_RX20MCJ_k-1" target="lVZHPiC1ry_RX20MCJ_k-30">
          <mxGeometry relative="1" as="geometry" />
        </mxCell>
        <mxCell id="lVZHPiC1ry_RX20MCJ_k-1" value="Saldo atualizado" style="shape=display;whiteSpace=wrap;html=1;fontFamily=Courier New;fontSize=12;" vertex="1" parent="1">
          <mxGeometry x="245.5" y="1004" width="171" height="54" as="geometry" />
        </mxCell>
        <mxCell id="lVZHPiC1ry_RX20MCJ_k-26" value="Opção" style="shape=manualInput;whiteSpace=wrap;html=1;fontFamily=Courier New;fontSize=12;" vertex="1" parent="1">
          <mxGeometry x="44" y="285" width="80" height="80" as="geometry" />
        </mxCell>
        <mxCell id="lVZHPiC1ry_RX20MCJ_k-35" value="" style="edgeStyle=orthogonalEdgeStyle;rounded=0;orthogonalLoop=1;jettySize=auto;html=1;fontFamily=Courier New;fontSize=12;" edge="1" parent="1" source="lVZHPiC1ry_RX20MCJ_k-27" target="lVZHPiC1ry_RX20MCJ_k-32">
          <mxGeometry relative="1" as="geometry" />
        </mxCell>
        <mxCell id="lVZHPiC1ry_RX20MCJ_k-27" value="&lt;div style=&quot;&quot;&gt;&lt;span style=&quot;background-color: initial;&quot;&gt;&lt;font style=&quot;font-size: 12px;&quot;&gt;Deseja adicionar mais peças?&lt;/font&gt;&lt;/span&gt;&lt;/div&gt;" style="shape=display;whiteSpace=wrap;html=1;fontFamily=Courier New;fontSize=12;align=center;" vertex="1" parent="1">
          <mxGeometry x="-266" y="923" width="192" height="54" as="geometry" />
        </mxCell>
        <mxCell id="lVZHPiC1ry_RX20MCJ_k-34" value="" style="edgeStyle=orthogonalEdgeStyle;rounded=0;orthogonalLoop=1;jettySize=auto;html=1;fontFamily=Courier New;fontSize=12;" edge="1" parent="1" source="lVZHPiC1ry_RX20MCJ_k-30" target="lVZHPiC1ry_RX20MCJ_k-33">
          <mxGeometry relative="1" as="geometry" />
        </mxCell>
        <mxCell id="lVZHPiC1ry_RX20MCJ_k-30" value="&lt;div style=&quot;&quot;&gt;&lt;span style=&quot;background-color: initial;&quot;&gt;&lt;font style=&quot;font-size: 12px;&quot;&gt;Deseja remover mais peças?&lt;/font&gt;&lt;/span&gt;&lt;/div&gt;" style="shape=display;whiteSpace=wrap;html=1;fontFamily=Courier New;fontSize=12;align=center;" vertex="1" parent="1">
          <mxGeometry x="235" y="1109" width="192" height="54" as="geometry" />
        </mxCell>
        <mxCell id="lVZHPiC1ry_RX20MCJ_k-38" value="" style="edgeStyle=orthogonalEdgeStyle;rounded=0;orthogonalLoop=1;jettySize=auto;html=1;fontFamily=Courier New;fontSize=12;" edge="1" parent="1" source="lVZHPiC1ry_RX20MCJ_k-32" target="lVZHPiC1ry_RX20MCJ_k-36">
          <mxGeometry relative="1" as="geometry" />
        </mxCell>
        <mxCell id="lVZHPiC1ry_RX20MCJ_k-32" value="Opção:&lt;br&gt;S: Sim&lt;br&gt;N: Não" style="shape=display;whiteSpace=wrap;html=1;fontFamily=Courier New;fontSize=12;" vertex="1" parent="1">
          <mxGeometry x="-245" y="1038" width="150" height="59" as="geometry" />
        </mxCell>
        <mxCell id="lVZHPiC1ry_RX20MCJ_k-39" value="" style="edgeStyle=orthogonalEdgeStyle;rounded=0;orthogonalLoop=1;jettySize=auto;html=1;fontFamily=Courier New;fontSize=12;" edge="1" parent="1" source="lVZHPiC1ry_RX20MCJ_k-33" target="lVZHPiC1ry_RX20MCJ_k-37">
          <mxGeometry relative="1" as="geometry" />
        </mxCell>
        <mxCell id="lVZHPiC1ry_RX20MCJ_k-33" value="Opção:&lt;br&gt;S: Sim&lt;br&gt;N: Não" style="shape=display;whiteSpace=wrap;html=1;fontFamily=Courier New;fontSize=12;" vertex="1" parent="1">
          <mxGeometry x="256" y="1214" width="150" height="59" as="geometry" />
        </mxCell>
        <mxCell id="lVZHPiC1ry_RX20MCJ_k-42" value="" style="edgeStyle=orthogonalEdgeStyle;rounded=0;orthogonalLoop=1;jettySize=auto;html=1;fontFamily=Courier New;fontSize=12;" edge="1" parent="1" source="lVZHPiC1ry_RX20MCJ_k-36" target="lVZHPiC1ry_RX20MCJ_k-40">
          <mxGeometry relative="1" as="geometry" />
        </mxCell>
        <mxCell id="lVZHPiC1ry_RX20MCJ_k-36" value="Opção" style="shape=manualInput;whiteSpace=wrap;html=1;fontFamily=Courier New;fontSize=12;" vertex="1" parent="1">
          <mxGeometry x="-210" y="1131" width="80" height="80" as="geometry" />
        </mxCell>
        <mxCell id="lVZHPiC1ry_RX20MCJ_k-43" value="" style="edgeStyle=orthogonalEdgeStyle;rounded=0;orthogonalLoop=1;jettySize=auto;html=1;fontFamily=Courier New;fontSize=12;" edge="1" parent="1" source="lVZHPiC1ry_RX20MCJ_k-37" target="lVZHPiC1ry_RX20MCJ_k-41">
          <mxGeometry relative="1" as="geometry" />
        </mxCell>
        <mxCell id="lVZHPiC1ry_RX20MCJ_k-37" value="Opção" style="shape=manualInput;whiteSpace=wrap;html=1;fontFamily=Courier New;fontSize=12;" vertex="1" parent="1">
          <mxGeometry x="291" y="1307" width="80" height="80" as="geometry" />
        </mxCell>
        <mxCell id="lVZHPiC1ry_RX20MCJ_k-61" value="" style="edgeStyle=orthogonalEdgeStyle;rounded=0;orthogonalLoop=1;jettySize=auto;html=1;fontFamily=Courier New;fontSize=12;startArrow=none;" edge="1" parent="1" source="lVZHPiC1ry_RX20MCJ_k-62" target="lVZHPiC1ry_RX20MCJ_k-60">
          <mxGeometry relative="1" as="geometry" />
        </mxCell>
        <mxCell id="lVZHPiC1ry_RX20MCJ_k-40" value="Opção = S" style="strokeWidth=2;html=1;shape=mxgraph.flowchart.decision;whiteSpace=wrap;fontFamily=Courier New;fontSize=12;" vertex="1" parent="1">
          <mxGeometry x="-220" y="1254" width="100" height="100" as="geometry" />
        </mxCell>
        <mxCell id="lVZHPiC1ry_RX20MCJ_k-85" value="" style="edgeStyle=orthogonalEdgeStyle;rounded=0;orthogonalLoop=1;jettySize=auto;html=1;fontFamily=Courier New;fontSize=12;entryX=1;entryY=0.5;entryDx=0;entryDy=0;entryPerimeter=0;" edge="1" parent="1" source="lVZHPiC1ry_RX20MCJ_k-41" target="CxPUUfQjLeS6HFwpv8-U-29">
          <mxGeometry relative="1" as="geometry">
            <mxPoint x="511" y="1489" as="targetPoint" />
            <Array as="points">
              <mxPoint x="669" y="1489" />
              <mxPoint x="669" y="477" />
            </Array>
          </mxGeometry>
        </mxCell>
        <mxCell id="lVZHPiC1ry_RX20MCJ_k-87" value="" style="edgeStyle=orthogonalEdgeStyle;rounded=0;orthogonalLoop=1;jettySize=auto;html=1;fontFamily=Courier New;fontSize=12;" edge="1" parent="1" source="lVZHPiC1ry_RX20MCJ_k-41" target="lVZHPiC1ry_RX20MCJ_k-86">
          <mxGeometry relative="1" as="geometry" />
        </mxCell>
        <mxCell id="lVZHPiC1ry_RX20MCJ_k-41" value="Opção = S" style="strokeWidth=2;html=1;shape=mxgraph.flowchart.decision;whiteSpace=wrap;fontFamily=Courier New;fontSize=12;" vertex="1" parent="1">
          <mxGeometry x="281" y="1439" width="100" height="100" as="geometry" />
        </mxCell>
        <mxCell id="lVZHPiC1ry_RX20MCJ_k-59" value="" style="edgeStyle=orthogonalEdgeStyle;rounded=0;orthogonalLoop=1;jettySize=auto;html=1;fontFamily=Courier New;fontSize=12;entryX=0;entryY=0.5;entryDx=0;entryDy=0;entryPerimeter=0;endArrow=none;" edge="1" parent="1" source="lVZHPiC1ry_RX20MCJ_k-40" target="lVZHPiC1ry_RX20MCJ_k-51">
          <mxGeometry relative="1" as="geometry">
            <mxPoint x="-220" y="1304" as="sourcePoint" />
            <mxPoint x="-266" y="477" as="targetPoint" />
            <Array as="points">
              <mxPoint x="-286" y="1304" />
            </Array>
          </mxGeometry>
        </mxCell>
        <mxCell id="lVZHPiC1ry_RX20MCJ_k-72" value="" style="edgeStyle=orthogonalEdgeStyle;rounded=0;orthogonalLoop=1;jettySize=auto;html=1;fontFamily=Courier New;fontSize=12;entryX=0;entryY=0.5;entryDx=0;entryDy=0;entryPerimeter=0;" edge="1" parent="1" source="lVZHPiC1ry_RX20MCJ_k-51" target="CxPUUfQjLeS6HFwpv8-U-28">
          <mxGeometry relative="1" as="geometry">
            <mxPoint x="-285.5" y="1100" as="targetPoint" />
            <Array as="points">
              <mxPoint x="-285" y="473" />
              <mxPoint x="-274" y="473" />
            </Array>
          </mxGeometry>
        </mxCell>
        <mxCell id="lVZHPiC1ry_RX20MCJ_k-51" value="SIM" style="text;strokeColor=none;align=center;fillColor=none;html=1;verticalAlign=middle;whiteSpace=wrap;rounded=0;fontFamily=Courier New;fontSize=12;rotation=270;" vertex="1" parent="1">
          <mxGeometry x="-315.5" y="1195" width="60" height="30" as="geometry" />
        </mxCell>
        <mxCell id="lVZHPiC1ry_RX20MCJ_k-65" value="" style="edgeStyle=orthogonalEdgeStyle;rounded=0;orthogonalLoop=1;jettySize=auto;html=1;fontFamily=Courier New;fontSize=12;" edge="1" parent="1" source="lVZHPiC1ry_RX20MCJ_k-60" target="lVZHPiC1ry_RX20MCJ_k-64">
          <mxGeometry relative="1" as="geometry" />
        </mxCell>
        <mxCell id="lVZHPiC1ry_RX20MCJ_k-60" value="Saldo atualizado" style="shape=display;whiteSpace=wrap;html=1;fontFamily=Courier New;fontSize=12;" vertex="1" parent="1">
          <mxGeometry x="-255.5" y="1743" width="171" height="54" as="geometry" />
        </mxCell>
        <mxCell id="lVZHPiC1ry_RX20MCJ_k-63" value="" style="edgeStyle=orthogonalEdgeStyle;rounded=0;orthogonalLoop=1;jettySize=auto;html=1;fontFamily=Courier New;fontSize=12;endArrow=none;" edge="1" parent="1" source="lVZHPiC1ry_RX20MCJ_k-40" target="lVZHPiC1ry_RX20MCJ_k-62">
          <mxGeometry relative="1" as="geometry">
            <mxPoint x="-170" y="1354" as="sourcePoint" />
            <mxPoint x="-170" y="1439" as="targetPoint" />
          </mxGeometry>
        </mxCell>
        <mxCell id="lVZHPiC1ry_RX20MCJ_k-62" value="NÃO" style="text;strokeColor=none;align=center;fillColor=none;html=1;verticalAlign=middle;whiteSpace=wrap;rounded=0;fontFamily=Courier New;fontSize=12;" vertex="1" parent="1">
          <mxGeometry x="-200" y="1370" width="60" height="30" as="geometry" />
        </mxCell>
        <mxCell id="lVZHPiC1ry_RX20MCJ_k-67" value="" style="edgeStyle=orthogonalEdgeStyle;rounded=0;orthogonalLoop=1;jettySize=auto;html=1;fontFamily=Courier New;fontSize=12;" edge="1" parent="1" source="lVZHPiC1ry_RX20MCJ_k-64" target="lVZHPiC1ry_RX20MCJ_k-66">
          <mxGeometry relative="1" as="geometry" />
        </mxCell>
        <mxCell id="lVZHPiC1ry_RX20MCJ_k-64" value="Sistema encerrado" style="shape=display;whiteSpace=wrap;html=1;fontFamily=Courier New;fontSize=12;" vertex="1" parent="1">
          <mxGeometry x="-255.5" y="1880" width="171" height="54" as="geometry" />
        </mxCell>
        <mxCell id="lVZHPiC1ry_RX20MCJ_k-66" value="&lt;font face=&quot;Courier New&quot; style=&quot;font-size: 14px;&quot;&gt;FIM&lt;/font&gt;" style="ellipse;whiteSpace=wrap;html=1;" vertex="1" parent="1">
          <mxGeometry x="-25" y="1983" width="168" height="57" as="geometry" />
        </mxCell>
        <mxCell id="lVZHPiC1ry_RX20MCJ_k-75" value="Deseja continuar no sistema?&lt;br&gt;S: SIM" style="shape=display;whiteSpace=wrap;html=1;fontFamily=Courier New;fontSize=12;" vertex="1" parent="1">
          <mxGeometry x="-278" y="1417" width="200.5" height="57" as="geometry" />
        </mxCell>
        <mxCell id="lVZHPiC1ry_RX20MCJ_k-76" value="Opção = S" style="strokeWidth=2;html=1;shape=mxgraph.flowchart.decision;whiteSpace=wrap;fontFamily=Courier New;fontSize=12;" vertex="1" parent="1">
          <mxGeometry x="-220" y="1499" width="100" height="100" as="geometry" />
        </mxCell>
        <mxCell id="lVZHPiC1ry_RX20MCJ_k-77" value="NÃO" style="text;strokeColor=none;align=center;fillColor=none;html=1;verticalAlign=middle;whiteSpace=wrap;rounded=0;fontFamily=Courier New;fontSize=12;rotation=0;" vertex="1" parent="1">
          <mxGeometry x="-187" y="1626" width="60" height="30" as="geometry" />
        </mxCell>
        <mxCell id="lVZHPiC1ry_RX20MCJ_k-78" value="" style="edgeStyle=orthogonalEdgeStyle;rounded=0;orthogonalLoop=1;jettySize=auto;html=1;fontFamily=Courier New;fontSize=12;endArrow=none;" edge="1" parent="1">
          <mxGeometry relative="1" as="geometry">
            <mxPoint x="-221.5" y="1548.9999999999995" as="sourcePoint" />
            <mxPoint x="-347" y="1423" as="targetPoint" />
            <Array as="points">
              <mxPoint x="-347" y="1549" />
              <mxPoint x="-347" y="1485" />
            </Array>
          </mxGeometry>
        </mxCell>
        <mxCell id="lVZHPiC1ry_RX20MCJ_k-79" value="SIM" style="text;strokeColor=none;align=center;fillColor=none;html=1;verticalAlign=middle;whiteSpace=wrap;rounded=0;fontFamily=Courier New;fontSize=12;rotation=270;" vertex="1" parent="1">
          <mxGeometry x="-377" y="1387" width="60" height="30" as="geometry" />
        </mxCell>
        <mxCell id="lVZHPiC1ry_RX20MCJ_k-80" value="" style="edgeStyle=orthogonalEdgeStyle;rounded=0;orthogonalLoop=1;jettySize=auto;html=1;fontFamily=Courier New;fontSize=12;" edge="1" parent="1">
          <mxGeometry relative="1" as="geometry">
            <mxPoint x="-346.97903075730164" y="1382.5" as="sourcePoint" />
            <mxPoint x="-347" y="239" as="targetPoint" />
            <Array as="points">
              <mxPoint x="-346.98" y="675" />
            </Array>
          </mxGeometry>
        </mxCell>
        <mxCell id="lVZHPiC1ry_RX20MCJ_k-83" value="" style="edgeStyle=orthogonalEdgeStyle;rounded=0;orthogonalLoop=1;jettySize=auto;html=1;fontFamily=Courier New;fontSize=12;" edge="1" parent="1">
          <mxGeometry relative="1" as="geometry">
            <mxPoint x="-5" y="242" as="targetPoint" />
            <mxPoint x="-347" y="238" as="sourcePoint" />
            <Array as="points">
              <mxPoint x="-233" y="242.02" />
              <mxPoint x="-233" y="242.02" />
            </Array>
          </mxGeometry>
        </mxCell>
        <mxCell id="lVZHPiC1ry_RX20MCJ_k-89" value="" style="edgeStyle=orthogonalEdgeStyle;rounded=0;orthogonalLoop=1;jettySize=auto;html=1;fontFamily=Courier New;fontSize=12;" edge="1" parent="1" source="lVZHPiC1ry_RX20MCJ_k-86" target="lVZHPiC1ry_RX20MCJ_k-88">
          <mxGeometry relative="1" as="geometry" />
        </mxCell>
        <mxCell id="lVZHPiC1ry_RX20MCJ_k-86" value="NÃO" style="text;strokeColor=none;align=center;fillColor=none;html=1;verticalAlign=middle;whiteSpace=wrap;rounded=0;fontFamily=Courier New;fontSize=12;" vertex="1" parent="1">
          <mxGeometry x="301" y="1569" width="60" height="30" as="geometry" />
        </mxCell>
        <mxCell id="lVZHPiC1ry_RX20MCJ_k-96" value="" style="edgeStyle=orthogonalEdgeStyle;rounded=0;orthogonalLoop=1;jettySize=auto;html=1;fontFamily=Courier New;fontSize=12;" edge="1" parent="1" source="lVZHPiC1ry_RX20MCJ_k-88" target="lVZHPiC1ry_RX20MCJ_k-93">
          <mxGeometry relative="1" as="geometry" />
        </mxCell>
        <mxCell id="lVZHPiC1ry_RX20MCJ_k-88" value="Deseja continuar no sistema?&lt;br&gt;S: SIM" style="shape=display;whiteSpace=wrap;html=1;fontFamily=Courier New;fontSize=12;" vertex="1" parent="1">
          <mxGeometry x="230.75" y="1629" width="200.5" height="57" as="geometry" />
        </mxCell>
        <mxCell id="lVZHPiC1ry_RX20MCJ_k-90" value="SIM" style="text;strokeColor=none;align=center;fillColor=none;html=1;verticalAlign=middle;whiteSpace=wrap;rounded=0;fontFamily=Courier New;fontSize=12;rotation=0;" vertex="1" parent="1">
          <mxGeometry x="460" y="1466" width="60" height="30" as="geometry" />
        </mxCell>
        <mxCell id="lVZHPiC1ry_RX20MCJ_k-107" value="" style="edgeStyle=orthogonalEdgeStyle;rounded=0;orthogonalLoop=1;jettySize=auto;html=1;fontFamily=Courier New;fontSize=12;" edge="1" parent="1" source="lVZHPiC1ry_RX20MCJ_k-93">
          <mxGeometry relative="1" as="geometry">
            <mxPoint x="-81" y="1770" as="targetPoint" />
          </mxGeometry>
        </mxCell>
        <mxCell id="lVZHPiC1ry_RX20MCJ_k-93" value="Opção = S" style="strokeWidth=2;html=1;shape=mxgraph.flowchart.decision;whiteSpace=wrap;fontFamily=Courier New;fontSize=12;" vertex="1" parent="1">
          <mxGeometry x="281" y="1720" width="100" height="100" as="geometry" />
        </mxCell>
        <mxCell id="lVZHPiC1ry_RX20MCJ_k-95" value="" style="edgeStyle=orthogonalEdgeStyle;rounded=0;orthogonalLoop=1;jettySize=auto;html=1;fontFamily=Courier New;fontSize=12;" edge="1" parent="1" target="CxPUUfQjLeS6HFwpv8-U-8">
          <mxGeometry relative="1" as="geometry">
            <mxPoint x="381" y="1770.0476190476188" as="sourcePoint" />
            <mxPoint x="427" y="757.9999999999998" as="targetPoint" />
            <Array as="points">
              <mxPoint x="735" y="1770" />
              <mxPoint x="735" y="242" />
            </Array>
          </mxGeometry>
        </mxCell>
        <mxCell id="lVZHPiC1ry_RX20MCJ_k-97" value="SIM" style="text;strokeColor=none;align=center;fillColor=none;html=1;verticalAlign=middle;whiteSpace=wrap;rounded=0;fontFamily=Courier New;fontSize=12;rotation=0;" vertex="1" parent="1">
          <mxGeometry x="462" y="1746" width="60" height="30" as="geometry" />
        </mxCell>
        <mxCell id="lVZHPiC1ry_RX20MCJ_k-108" value="NÃO" style="text;strokeColor=none;align=center;fillColor=none;html=1;verticalAlign=middle;whiteSpace=wrap;rounded=0;fontFamily=Courier New;fontSize=12;rotation=0;" vertex="1" parent="1">
          <mxGeometry x="68" y="1751" width="60" height="30" as="geometry" />
        </mxCell>
      </root>
    </mxGraphModel>
  </diagram>
</mxfile>
